<svg id="SvgjsSvg1013" width="288" height="288" xmlns="http://www.w3.org/2000/svg" version="1.1" xmlns:xlink="http://www.w3.org/1999/xlink" xmlns:svgjs="http://svgjs.com/svgjs"><defs id="SvgjsDefs1014"></defs><g id="SvgjsG1015"><svg xmlns="http://www.w3.org/2000/svg" width="288" height="288" preserveAspectRatio="xMinYMin meet" viewBox="0 0 256 236"><path fill="#83a598" d="M128.075 236.075l47.104-144.97H80.97l47.104 144.97z" class="colorE24329 svgShape"></path><path fill="#ffffff" d="M128.075 236.074L80.97 91.104H14.956l113.119 144.97z" class="colorFC6D26 svgShape"></path><path fill="#83a598" d="M14.956 91.104L.642 135.16a9.752 9.752 0 0 0 3.542 10.903l123.891 90.012-113.12-144.97z" class="colorFCA326 svgShape"></path><path fill="#83a598" d="M14.956 91.105H80.97L52.601 3.79c-1.46-4.493-7.816-4.492-9.275 0l-28.37 87.315z" class="colorE24329 svgShape"></path><path fill="#ffffff" d="M128.075 236.074l47.104-144.97h66.015l-113.12 144.97z" class="colorFC6D26 svgShape"></path><path fill="#83a598" d="M241.194 91.104l14.314 44.056a9.752 9.752 0 0 1-3.543 10.903l-123.89 90.012 113.119-144.97z" class="colorFCA326 svgShape"></path><path fill="#83a598" d="M241.194 91.105h-66.015l28.37-87.315c1.46-4.493 7.816-4.492 9.275 0l28.37 87.315z" class="colorE24329 svgShape"></path></svg></g></svg>